<svg width="298" height="35" viewBox="0 0 298 35" fill="none" xmlns="http://www.w3.org/2000/svg">
<g clip-path="url(#clip0)">
<path d="M18.0133 0.0230713H31.9502V6.821H17.1085C14.4297 6.821 12.3983 7.36293 11.0146 8.44676C9.13028 9.53232 7.68823 11.6273 6.68853 14.7318C6.48641 15.6224 6.37534 16.5349 6.35736 17.4526C6.35736 20.0887 7.25524 22.5674 9.05099 24.889C10.2264 26.1352 11.3302 26.9601 12.3626 27.3635C13.4944 27.9259 15.0484 28.2072 17.0246 28.2072H31.9502V35.0025H17.7242C14.0876 35.0025 11.394 34.517 9.6433 33.5461C5.73001 31.6656 2.92679 28.5884 1.23367 24.3146C0.407216 22.1578 -0.0124904 19.8391 -3.59035e-05 17.4988C-3.59035e-05 12.2915 1.87655 7.84672 5.62974 4.1644C8.08625 2.11468 10.308 0.904332 12.295 0.533365C13.3118 0.194878 15.2179 0.0247807 18.0133 0.0230713ZM15.3197 14.1497H31.9502V20.8733H15.3197V14.1497Z" fill="white"/>
<path d="M52.7692 16.2217V21.2836H36.6309V16.2217H52.7692Z" fill="white"/>
<path d="M54.1242 0.0487061H71.8297C78.2447 0.0487061 82.6967 3.13098 85.1859 9.29554C85.7967 11.0625 86.1035 12.939 86.0907 14.8293C86.0907 18.9322 84.6339 22.5222 81.7203 25.5993C79.9246 27.3465 77.7238 28.5277 75.1181 29.1431C74.1092 29.2995 73.091 29.3723 72.0723 29.3611L60.5049 29.5073V34.9923H54.0799V22.5965H71.5709C73.8533 22.5965 75.5238 22.1273 76.5827 21.1887C77.9368 20.2348 78.9086 18.6962 79.4978 16.573C79.6 16.0864 79.6586 15.59 79.6727 15.0908V14.36C79.6727 12.5309 78.9591 10.7512 77.5318 9.02116C76.0455 7.58345 74.3974 6.86373 72.5877 6.86203H54.1242V0.0487061Z" fill="white"/>
<path d="M89.3974 0.0487061H95.7995V16.5781C95.7995 21.2058 97.4108 24.5711 100.633 26.6738C102.047 27.6995 103.924 28.2123 106.264 28.2123H121.406V35.0077H106.481C102.438 35.0077 99.2076 34.0769 96.7885 32.2152C96.1151 31.8391 95.1024 30.9305 93.7513 29.4893C92.0011 27.3217 90.8162 25.1378 90.1973 22.9375C89.669 21.2708 89.4035 18.8835 89.4026 15.7755L89.3974 0.0487061Z" fill="white"/>
<path d="M142.027 0H156.719V35H150.346V6.82101L144.65 6.84409H143.282C140.102 6.84409 138.336 6.99026 137.983 7.28259C136.057 7.8669 134.362 9.13883 133.165 10.8982C131.751 13.1206 131.045 15.3293 131.045 17.5244C131.045 20.2425 132.002 22.7427 133.915 25.0249C135.197 26.3686 136.301 27.1772 137.228 27.4507C138.16 27.9635 139.757 28.22 142.018 28.22H146.449V34.9923H141.14C137.196 34.9923 133.863 33.8512 131.14 31.569C129.169 29.8595 127.853 28.3063 127.19 26.9097C125.541 24.0308 124.716 21.0861 124.718 18.0757V17.05C124.718 12.8445 126.152 8.98528 129.023 5.47219C130.758 3.62249 132.178 2.45403 133.282 1.96682C134.329 1.37274 135.432 0.908323 136.572 0.582094C137.822 0.194031 139.641 0 142.027 0Z" fill="white"/>
<path d="M172.907 35V29.2714C170.343 28.5174 167.946 27.1955 165.864 25.3865C164.113 23.6564 162.973 22.2161 162.443 21.0656C161.706 19.7653 161.134 18.3609 160.742 16.891C160.276 15.2738 160.043 13.0728 160.043 10.2879V0.0487061H166.444V10.6059C166.444 13.683 166.989 16.0542 168.077 17.7192C168.296 18.2526 169.002 19.1022 170.195 20.2681C171.842 21.7587 173.911 22.5736 176.045 22.5736C178.179 22.5736 180.247 21.7587 181.895 20.2681C183.087 19.1006 183.794 18.2509 184.015 17.7192C185.103 16.0524 185.647 13.6813 185.647 10.6059V0.0487061H192.049V10.2905C192.049 13.0753 191.815 15.2763 191.349 16.8935C190.971 18.3691 190.398 19.7756 189.649 21.0682C189.12 22.217 187.988 23.6573 186.251 25.389C184.159 27.1936 181.756 28.5142 179.187 29.2714V35H172.907Z" fill="white"/>
<path d="M213.367 0.0230713H227.297V6.821H212.457C209.78 6.821 207.75 7.36293 206.365 8.44676C204.482 9.53232 203.039 11.6273 202.04 14.7318C201.837 15.6224 201.727 16.5349 201.708 17.4526C201.708 20.0887 202.606 22.5674 204.4 24.889C205.577 26.1352 206.681 26.9601 207.711 27.3635C208.845 27.9294 210.399 28.2131 212.376 28.2149H227.301V35.0102H213.075C209.442 35.0102 206.749 34.5247 204.997 33.5537C201.082 31.6733 198.279 28.5961 196.587 24.3223C195.758 22.1644 195.338 19.8437 195.351 17.5013C195.351 12.2941 197.227 7.84928 200.979 4.16696C203.44 2.11553 205.664 0.904332 207.651 0.533365C208.666 0.194878 210.572 0.0247807 213.367 0.0230713ZM210.675 14.1497H227.297V20.8733H210.675V14.1497Z" fill="white"/>
<path d="M230.674 0.0230713H251.115C254.728 0.0230713 257.554 1.21205 259.592 3.59C260.382 4.34992 261.027 5.2736 261.49 6.30815C262.247 7.89155 262.656 9.6482 262.682 11.4368V12.4316C262.682 14.996 261.671 17.4961 259.65 19.9322C258.355 21.2999 257.178 22.1734 256.119 22.5529C258.797 25.6951 260.136 29.8458 260.136 35.0051H253.713V34.4717C253.713 30.6526 252.308 27.6182 249.496 25.3685C247.892 24.1223 245.793 23.4991 243.2 23.4991H230.674V16.7473H251.511C253.792 16.7473 255.338 15.5097 256.147 13.0343C256.236 12.5215 256.294 12.1111 256.325 11.7727C256.325 10.3965 255.803 9.15023 254.757 8.03391C253.951 7.29381 252.937 6.88257 251.886 6.86973C251.886 6.80562 251.579 6.77228 250.954 6.77228H230.664L230.674 0.0230713Z" fill="white"/>
<path d="M276.104 0.0487111H297.536V7.22872H275.903C274.213 7.22872 273.176 8.14247 272.792 9.96993V10.4828C272.792 11.5666 273.344 12.4727 274.447 13.2009C274.785 13.3466 275.145 13.4205 275.507 13.4189H286.386C289.185 13.4189 291.083 13.7343 292.081 14.3652C294.555 15.5806 296.265 17.4338 297.211 19.9245C297.724 21.3552 297.994 22.8771 298.007 24.4146C298.007 27.9089 296.521 30.8536 293.548 33.2485C292.604 33.8921 291.578 34.3754 290.503 34.682C289.649 34.8923 288.228 34.9975 286.242 34.9975H266.022L265.999 27.8174H287.72C289.545 27.8174 290.712 26.8301 291.218 24.8556L291.263 24.2018C291.263 22.8085 290.641 21.74 289.397 20.9964C288.867 20.7177 288.284 20.5848 287.697 20.6092H275.49C272.296 20.6092 269.634 19.0706 267.5 15.9934C266.61 14.4449 266.125 12.6559 266.101 10.8238V9.87504C266.101 6.28506 267.691 3.44554 270.871 1.3565C272.181 0.482931 273.925 0.0470015 276.104 0.0487111Z" fill="white"/>
</g>
<defs>
<clipPath id="clip0">
<rect width="298" height="35" fill="white"/>
</clipPath>
</defs>
</svg>
